<svg aria-hidden="true" style="width:0;height:0;position:absolute;overflow:hidden" xmlns="http://www.w3.org/2000/svg"><defs><symbol id="icon-Arrow" viewBox="0 0 82 32"><path d="M81.414 17.414a2 2 0 0 0 0-2.828L68.686 1.858a2 2 0 1 0-2.828 2.828L77.172 16 65.858 27.314a2 2 0 1 0 2.828 2.828l12.728-12.728zM0 18h80v-4H0v4z"/></symbol><symbol id="icon-burger-menu" viewBox="0 0 32 32"><path fill="#fff" style="fill:var(--color1,#fff)" d="M26.733 14H5.267c-.7 0-1.267.425-1.267.95v.1c0 .525.567.95 1.267.95h21.466c.7 0 1.267-.425 1.267-.95v-.1c0-.525-.567-.95-1.267-.95zm0 6H5.267c-.7 0-1.267.425-1.267.95v.1c0 .525.567.95 1.267.95h21.466c.7 0 1.267-.425 1.267-.95v-.1c0-.525-.567-.95-1.267-.95zm0-12H5.267C4.567 8 4 8.425 4 8.95v.1c0 .525.567.95 1.267.95h21.466c.7 0 1.267-.425 1.267-.95v-.1c0-.525-.567-.95-1.267-.95z"/></symbol><symbol id="icon-cow" viewBox="0 0 32 32"><path fill="#f8d24e" style="fill:var(--color2,#f8d24e)" d="M16 0c8.837 0 16 7.163 16 16s-7.163 16-16 16S0 24.837 0 16 7.163 0 16 0z"/><path fill="#131313" style="fill:var(--color3,#131313)" d="M8.922 4.618c-.188.163-.725 1.283-.918 1.894-.229.758-.307 1.326-.276 2.111.042 1.12.323 1.97.943 2.858.162.232.292.433.292.449 0 .011-.099.021-.224.021-.538 0-1.544.179-2.315.412-1.225.368-1.944 1.012-1.944 1.732 0 .255.229.687.474.909.474.428 1.512.834 2.627 1.028.386.07 1.533.189 1.788.195.047 0 .063.249.063 1.066 0 .703.026 1.25.078 1.585.188 1.201.771 2.474 1.542 3.372l.266.308-.177.287c-.26.406-.36.714-.39 1.174-.079 1.104.609 2.083 1.939 2.771 2.532 1.315 6.468.8 7.944-1.039.719-.899.803-1.926.234-2.858l-.177-.287.318-.384a6.655 6.655 0 0 0 1.272-2.332c.244-.769.339-1.51.339-2.685 0-.536.015-.979.042-.979.24-.006 1.392-.13 1.757-.195 1.121-.195 2.138-.595 2.627-1.028.245-.222.474-.655.474-.909 0-.801-.813-1.45-2.325-1.84-.495-.13-1.428-.287-1.882-.314l-.214-.017.235-.324c.292-.396.657-1.164.797-1.667.396-1.455.151-3.149-.699-4.768-.354-.671-.599-.828-.886-.563-.109.104-.156.244-.26.753-.323 1.619-.923 2.901-1.798 3.848l-.386.422h-8.246l-.344-.374c-.854-.942-1.475-2.273-1.798-3.897-.104-.509-.151-.649-.26-.752-.172-.157-.339-.152-.531.016zm.666 3.21a8.607 8.607 0 0 0 1.027 1.699l.323.417-.339.255a3.401 3.401 0 0 0-.845.985l-.099.179-.25-.341c-.855-1.18-1.069-2.625-.615-4.124.219-.725.214-.719.412-.092.094.303.271.763.386 1.023zm13.568-1.142c.189.524.298 1.13.298 1.76v.067-.003c0 .984-.26 1.818-.808 2.565l-.245.335-.182-.308a3.27 3.27 0 0 0-.903-.995l-.009-.007a1.26 1.26 0 0 1-.25-.195c0-.016.099-.141.224-.276.579-.644 1.199-1.802 1.507-2.798.093-.308.188-.563.203-.563s.094.189.166.417zm-2.663 3.956c.579.243 1.131.941 1.22 1.532.047.325.156.531.297.563.063.01.495.049.959.081 1.647.109 2.945.461 3.498.942.255.227.229.416-.078.65-.615.465-1.944.817-3.3.877-.897.038-1.084.064-1.204.189-.089.092-.099.189-.099 1.169 0 1.326-.068 2.089-.235 2.706-.234.838-.698 1.732-1.24 2.365l-.224.26-.464-.276a5.646 5.646 0 0 0-1.681-.69l-.039-.008c-1.976-.472-4.16-.184-5.629.741l-.339.216-.214-.255a7.81 7.81 0 0 1-.933-1.483c-.401-.931-.521-1.688-.521-3.355 0-1.619.083-1.5-1.116-1.564-1.533-.081-2.701-.357-3.436-.823-.542-.346-.453-.655.303-1.018.724-.351 1.72-.563 3.101-.649 1.074-.07 1.1-.086 1.199-.606.146-.785.724-1.434 1.455-1.64.182-.054 1.204-.065 4.332-.06l4.092.01.297.125zm-2.929 11.202c1.277.314 2.231.899 2.643 1.624.099.168.141.341.161.606.021.33.006.412-.12.682-.579 1.229-2.705 2.04-4.868 1.856-2.601-.216-4.311-1.667-3.638-3.09.365-.769 1.6-1.505 2.903-1.722.214-.032.428-.07.469-.081s.511-.011 1.043 0c.724.016 1.073.049 1.407.124z"/><path fill="#131313" style="fill:var(--color3,#131313)" d="M12.392 13.351c-.323.109-.542.25-.834.541-.255.243-.276.53-.062.703.198.162.385.141.625-.07.302-.265.537-.374.829-.374.292-.005.516.098.829.374.24.211.428.232.625.07.104-.087.136-.157.136-.32 0-.167-.036-.243-.219-.427-.516-.519-1.283-.719-1.929-.498zm6.078-.006c-.333.125-.761.406-.932.617-.167.206-.173.438 0 .612.172.184.38.173.63-.033.615-.509 1.074-.525 1.642-.054.146.125.312.222.365.222.255 0 .464-.227.464-.498 0-.173-.433-.573-.824-.763-.433-.211-.948-.249-1.345-.102zm-5.321 10.016c-.151.146-.204.356-.125.525.058.134.146.189.506.287.162.043.23.097.287.232.073.179.078.179.48.195l.401.017v-.152c-.005-.216-.125-.53-.282-.746-.182-.25-.5-.412-.86-.444-.245-.021-.307-.011-.406.087zm4.978-.038c-.26.07-.636.422-.74.698a1.798 1.798 0 0 0-.098.487v.006c-.011.232.01.287.135.4.307.271.714.06.714-.373 0-.211.156-.357.433-.411.292-.054.397-.173.401-.449 0-.362-.323-.503-.845-.357z"/></symbol><symbol id="icon-facebook" viewBox="0 0 32 32"><path fill="#f8d24e" style="fill:var(--color2,#f8d24e)" d="M16 32c8.837 0 16-7.163 16-16S24.837 0 16 0 0 7.163 0 16s7.163 16 16 16z"/><path d="M20.446 15.981h-2.611V25.6H13.88v-9.619H12v-3.379h1.88v-2.187c0-1.564.739-4.014 3.991-4.014l2.929.012v3.281h-2.125c-.348 0-.839.176-.839.922v1.989h2.955l-.345 3.377z"/></symbol><symbol id="icon-github" viewBox="0 0 32 32"><path fill="#f8d24e" style="fill:var(--color2,#f8d24e)" d="M32 16c0 8.837-7.163 16-16 16S0 24.837 0 16 7.163 0 16 0s16 7.163 16 16z"/><path d="M16 6.588c-5.17 0-9.412 4.242-9.412 9.412 0 4.411 3.096 8.419 7.206 9.412v-3.113a2.314 2.314 0 0 1-1.196-.031c-.556-.164-1.008-.535-1.344-1.099-.214-.36-.593-.753-.988-.724l-.097-1.098c.856-.073 1.594.521 2.033 1.258.196.328.421.52.709.605.278.083.577.043.925-.08.088-.697.408-.958.649-1.327-2.452-.365-3.429-1.666-3.816-2.692-.514-1.364-.238-3.066.67-4.143.018-.021.05-.075.038-.113-.417-1.259.09-2.3.109-2.41.481.141.559-.143 2.089.786l.264.159c.111.066.075.028.186.019a7.787 7.787 0 0 1 1.97-.276h.006a8.021 8.021 0 0 1 2.002.284l.086.009c-.008-.002.024-.006.075-.037 1.911-1.158 1.842-.779 2.355-.946.019.111.519 1.169.106 2.411-.056.171 1.656 1.739.708 4.256-.388 1.026-1.365 2.328-3.816 2.693.314.48.692.734.69 1.722v3.886c4.109-.993 7.206-5 7.206-9.412 0-5.17-4.242-9.412-9.412-9.412z"/></symbol><symbol id="icon-ice-cream" viewBox="0 0 32 32"><path fill="#f8d24e" style="fill:var(--color2,#f8d24e)" d="M16.325 14.204c1.533-4.148-1.642-6.418-3.745-7.91-.402-.305-.805-.59-1.13-.85a3.96 3.96 0 0 1-1.26-4.124l-.007.028a.431.431 0 0 0-.331-.537h-.003a.438.438 0 0 0-.237.017l.003-.001c-.748.3-1.393.69-1.961 1.169l.011-.009a4.623 4.623 0 0 0-1.806 3.654v.001a5.417 5.417 0 0 0-1.042 1.086 3.949 3.949 0 0 0-.768 2.556v-.009a5.035 5.035 0 0 0-1.527 4.77l-.006-.033a1.366 1.366 0 0 0-.607 1.548l-.002-.01c.167.578.691.994 1.313.994h.04v2.36c0 .498.404.902.902.902h.707l1.147 9.908a.9.9 0 0 0 .893.802H11.683a.91.91 0 0 0 .901-.798v-.004l1.146-9.908h.704a.907.907 0 0 0 .905-.902v-2.359h.028a1.374 1.374 0 0 0 1.266-1.905l.003.009a1.339 1.339 0 0 0-.3-.446l-.012.004zM5.999 6.678c.579 2.17 2.816 3.024 4.855 3.787a.438.438 0 1 0 .311-.801h-.003c-2.196-.831-4.268-1.605-4.424-3.823a3.697 3.697 0 0 1 1.458-3.174l.009-.007a6.47 6.47 0 0 1 .982-.674 4.88 4.88 0 0 0 .001.853l-.001-.019a4.744 4.744 0 0 0 1.69 3.295l.008.006c.334.285.748.578 1.206.89 1.058.758 2.261 1.605 3.025 2.752.477.681.763 1.527.763 2.439 0 .589-.119 1.15-.334 1.661l.011-.028h-1.778c-3.665 0-7.877-1.011-8.709-3.843a3.234 3.234 0 0 1 .946-3.291l.003-.003-.019-.02zm3.299 13.676 1.344 1.339-1.344 1.34-1.344-1.348 1.344-1.331zm3.08 3.517-1.11 1.107-1.344-1.34 1.344-1.336 1.166 1.16-.056.409zm-3.08 3.073-1.344-1.34 1.344-1.339 1.344 1.339-1.344 1.34zm-.616-3.298-1.343 1.34-1.118-1.115-.048-.401 1.166-1.16 1.344 1.336zM6.72 25.604l-.27.269-.068-.61.338.341zm-.141 1.372.76-.758 1.477 1.485c.007.03.016.059.028.088H6.671l-.093-.814zm4.683-.758.76.758-.093.802H9.697l1.565-1.56zm.884-.344-.27-.27.342-.341-.072.61zm.402-3.507-.672-.682.854-.85-.181 1.533zm-1.29-1.292-1.275-1.267h2.55l-1.274 1.267zm-3.923 0-1.276-1.267h2.55l-1.275 1.267zm4.344 8.568H6.912a.032.032 0 0 1-.028-.028l-.112-.962h5.052l-.109.962a.032.032 0 0 1-.032.028h-.005zm3.689-13.975h-1.4a.44.44 0 0 0-.48.435v.001c0 .241.196.437.437.437l.045-.002h-.002.499v2.359a.032.032 0 0 1-.032.028H4.149a.032.032 0 0 1-.032-.028v-2.359h7.968a.438.438 0 0 0 .283-.729.433.433 0 0 0-.281-.141H3.236a.501.501 0 0 1-.544-.496v-.002a.496.496 0 0 1 .546-.494h-.002.913a.437.437 0 0 0 .002-.869h-.806a4.268 4.268 0 0 1 .883-3.498l-.006.008c.282.874 1.006 2.07 2.816 3.021 1.701.886 3.954 1.339 6.693 1.339h1.609a.501.501 0 0 1 .544.496v.001a.497.497 0 0 1-.497.497l-.049-.002h.03zm3.498 12.104-.325.498.007.004.318-.502zm3.497.168.595-.013-.016-.688-.678.114.1.586zm.041 1.83.152.576.454-.12-.01-.469-.595.013zm-4.59.088.134-.581h-.004l-.13.58zm-2.265-1.011zm-.819-1.86.594.003v-.003h-.594zm.284-1.301-.534-.263v.002l.534.262zm1.824-1.557.212.557.002-.001-.213-.556zm5.845-.151.593.046.04-.502-.49-.121-.143.577zm-.145 1.865-.11.584.652.124.052-.662-.594-.046zm-1.586-.763c-.893 0-1.644.095-2.192.336a1.789 1.789 0 0 0-.722.543 1.391 1.391 0 0 0-.284.845v.015-.001h1.19c0-.07.016-.109.042-.142a.636.636 0 0 1 .254-.172c.32-.141.87-.236 1.712-.236v-1.19zm-3.198 1.739c0 .612.274 1.117.788 1.451l.649-.997a.484.484 0 0 1-.246-.454h-1.19zm.794 1.456c.486.307 1.127.423 1.846.423v-1.19c-.622 0-.999-.105-1.21-.238l-.636 1.005zm1.846.423c.706 0 1.395-.058 2.069-.171l-.199-1.174a10.86 10.86 0 0 1-1.849.154h-.021.001v1.19zm1.375-.744.04 1.83 1.19-.026-.041-1.83-1.19.026zm.484 1.241c-.68.179-1.43.271-2.254.271v1.19c.912 0 1.765-.102 2.557-.31l-.303-1.15zM20 29.466c-.84 0-1.52-.066-2.051-.189l-.267 1.16c.647.149 1.424.218 2.318.218v-1.19zm-2.055-.189c-.568-.126-.978-.262-1.251-.395l-.522 1.069c.393.192.904.352 1.514.488l.259-1.162zm-1.251-.395a3.645 3.645 0 0 1-.766-.493l.006.005-.77.907c.298.252.634.468 1.008.65l.522-1.069zm-.76-.489c-.405-.342-.612-.789-.608-1.402l-1.19-.006c-.005.936.334 1.728 1.03 2.316l.768-.909zm-.608-1.406c0-.4.078-.742.224-1.04l-1.07-.523a3.463 3.463 0 0 0-.346 1.52v.046-.002h1.19zm.223-1.038c.27-.55.749-.978 1.502-1.264l-.422-1.112c-.982.373-1.72.984-2.147 1.85l1.068.526zm1.504-1.264c.791-.304 1.674-.461 2.656-.461v-1.19c-1.11 0-2.139.177-3.083.539l.427 1.111zm2.656-.461c1.002 0 1.945.112 2.832.331l.286-1.154a12.594 12.594 0 0 0-3.055-.367h-.066.003v1.19zm2.381-.292-.145 1.865 1.186.093.145-1.866-1.186-.092zm.56 1.326a8.922 8.922 0 0 0-1.691-.179h-.006v1.19c.418 0 .909.05 1.475.158l.222-1.168zm5.804.951-.003.595.605.003-.006-.605-.595.006zm-.256-.773-.405.436.006.005.4-.44zm-1.48.058.412.43.004-.005-.416-.425zm-.36.704-.587-.096-.114.687.697.004.003-.595zm4.374 3.172.36.474.214-.162.02-.267-.594-.045zm-1.284.476-.128-.582-.003.001.131.581zm-4.462-.163-.202.56.005.002.198-.562zm-1.016-.54-.37.466.007.006.362-.472zm-.68-.854-.534.264.002.002.532-.266zm.696-3.608zm5.439-.645.238-.546-.006-.002-.232.548zm1.365 1.255-.534.26.002.003.533-.264zm.232 1.04.594.043.002-.022v-.022h-.595zm-.069.959-.003.595.556.002.04-.554-.593-.043zm-4.712-.024.003-.595-.776-.003.198.75.575-.152zm.674.832-.294.518.002.002.29-.52zm3.614-.204V27.3h-.119l-.11.046.229.549zm.313 0 .594.045.048-.64h-.642v.595zm-1.792-1.692c-.005-.43-.104-.892-.451-1.207l-.8.882c-.006-.006.008.002.024.053a.988.988 0 0 1 .037.286l1.19-.013zM28.604 25c-.312-.29-.722-.386-1.126-.386v1.19c.232 0 .302.056.316.067l.81-.872zm-1.126-.386c-.443 0-.855.139-1.178.455l.833.85c.065-.064.16-.114.344-.114v-1.19zm-1.173.451a1.81 1.81 0 0 0-.534 1.026l-.001.01 1.174.193a.63.63 0 0 1 .185-.37l-.824-.858zm.049 1.728 2.098.011.006-1.19-2.098-.012-.006 1.19zm4.019 2.103c-.13.098-.449.236-1.053.369l.256 1.162c.628-.138 1.166-.318 1.515-.584l-.718-.947zm-1.056.37a7.32 7.32 0 0 1-1.662.194h-.002v1.19a8.72 8.72 0 0 0 1.926-.224l-.262-1.16zm-1.664.194c-.561 0-1.022-.026-1.39-.076l-.159 1.179c.438.059.956.087 1.55.087v-1.19zm-1.391-.076a5.36 5.36 0 0 1-1.078-.262l-.396 1.122c.432.152.871.259 1.315.318l.159-1.179zm-1.073-.26a3.177 3.177 0 0 1-.866-.459l.008.006-.724.944c.338.26.734.467 1.176.627l.406-1.118zm-.851-.448a1.901 1.901 0 0 1-.512-.642l-.005-.011-1.064.532c.209.419.488.774.842 1.054l.738-.933zm-.516-.65c-.125-.254-.2-.579-.2-.998h-1.19c0 .558.1 1.073.323 1.525l1.066-.528zm-.2-.998c0-.418.076-.788.218-1.117l-1.091-.474a3.9 3.9 0 0 0-.317 1.552v.041-.002h1.19zm.219-1.117c.15-.346.334-.601.542-.786l-.792-.889c-.358.318-.634.726-.841 1.201l1.091.474zm.541-.786c.64-.57 1.615-.9 3.02-.9v-1.19c-1.576 0-2.878.37-3.812 1.202l.792.888zm3.02-.9c.631 0 1.226.12 1.79.359l.465-1.096a5.622 5.622 0 0 0-2.232-.454h-.023.001v1.19zm1.784.357c.527.23.867.555 1.069.97l1.07-.52c-.341-.702-.91-1.212-1.662-1.541l-.476 1.091zm1.071.972c.111.225.17.48.17.776h1.19c0-.462-.096-.9-.294-1.302l-1.066.526zm.172.734-.07.958 1.187.086.07-.958-1.187-.086zm.527.406-4.712-.023-.006 1.19 4.712.023.006-1.19zm-5.29.724c.139.527.479.927.957 1.197l.585-1.036c-.235-.133-.344-.287-.391-.464l-1.15.303zm.958 1.199c.483.27 1.086.378 1.76.378v-1.19c-.565 0-.941-.094-1.179-.227l-.581 1.039zm1.76.377c.724 0 1.519-.196 2.374-.551l-.458-1.098c-.765.318-1.4.46-1.915.46v1.19zm2.144-.505h.314v-1.19h-.314v1.19zm-.279-.639-.11 1.476 1.187.088.11-1.475-1.187-.089z"/></symbol><symbol id="icon-logo" viewBox="0 0 32 32"><path fill="#f8d24e" style="fill:var(--color2,#f8d24e)" d="M16.325 14.204c1.533-4.148-1.642-6.418-3.745-7.91-.402-.305-.805-.59-1.13-.85a3.96 3.96 0 0 1-1.26-4.124l-.007.028a.431.431 0 0 0-.331-.537h-.003a.438.438 0 0 0-.237.017l.003-.001c-.748.3-1.393.69-1.961 1.169l.011-.009a4.623 4.623 0 0 0-1.806 3.654v.001a5.417 5.417 0 0 0-1.042 1.086 3.949 3.949 0 0 0-.768 2.556v-.009a5.035 5.035 0 0 0-1.527 4.77l-.006-.033a1.366 1.366 0 0 0-.607 1.548l-.002-.01c.167.578.691.994 1.313.994h.04v2.36c0 .498.404.902.902.902h.707l1.147 9.908a.9.9 0 0 0 .893.802H11.683a.91.91 0 0 0 .901-.798v-.004l1.146-9.908h.704a.907.907 0 0 0 .905-.902v-2.359h.028a1.374 1.374 0 0 0 1.266-1.905l.003.009a1.339 1.339 0 0 0-.3-.446l-.012.004zM5.999 6.678c.579 2.17 2.816 3.024 4.855 3.787a.438.438 0 1 0 .311-.801h-.003c-2.196-.831-4.268-1.605-4.424-3.823a3.697 3.697 0 0 1 1.458-3.174l.009-.007a6.47 6.47 0 0 1 .982-.674 4.88 4.88 0 0 0 .001.853l-.001-.019a4.744 4.744 0 0 0 1.69 3.295l.008.006c.334.285.748.578 1.206.89 1.058.758 2.261 1.605 3.025 2.752.477.681.763 1.527.763 2.439 0 .589-.119 1.15-.334 1.661l.011-.028h-1.778c-3.665 0-7.877-1.011-8.709-3.843a3.234 3.234 0 0 1 .946-3.291l.003-.003-.019-.02zm3.299 13.676 1.344 1.339-1.344 1.34-1.344-1.348 1.344-1.331zm3.08 3.517-1.11 1.107-1.344-1.34 1.344-1.336 1.166 1.16-.056.409zm-3.08 3.073-1.344-1.34 1.344-1.339 1.344 1.339-1.344 1.34zm-.616-3.298-1.343 1.34-1.118-1.115-.048-.401 1.166-1.16 1.344 1.336zM6.72 25.604l-.27.269-.068-.61.338.341zm-.141 1.372.76-.758 1.477 1.485c.007.03.016.059.028.088H6.671l-.093-.814zm4.683-.758.76.758-.093.802H9.697l1.565-1.56zm.884-.344-.27-.27.342-.341-.072.61zm.402-3.507-.672-.682.854-.85-.181 1.533zm-1.29-1.292-1.275-1.267h2.55l-1.274 1.267zm-3.923 0-1.276-1.267h2.55l-1.275 1.267zm4.344 8.568H6.912a.032.032 0 0 1-.028-.028l-.112-.962h5.052l-.109.962a.032.032 0 0 1-.032.028h-.005zm3.689-13.975h-1.4a.44.44 0 0 0-.48.435v.001c0 .241.196.437.437.437l.045-.002h-.002.499v2.359a.032.032 0 0 1-.032.028H4.149a.032.032 0 0 1-.032-.028v-2.359h7.968a.438.438 0 0 0 .283-.729.433.433 0 0 0-.281-.141H3.236a.501.501 0 0 1-.544-.496v-.002a.496.496 0 0 1 .546-.494h-.002.913a.437.437 0 0 0 .002-.869h-.806a4.268 4.268 0 0 1 .883-3.498l-.006.008c.282.874 1.006 2.07 2.816 3.021 1.701.886 3.954 1.339 6.693 1.339h1.609a.501.501 0 0 1 .544.496v.001a.497.497 0 0 1-.497.497l-.049-.002h.03zm3.498 12.104-.325.498.007.004.318-.502zm3.497.168.595-.013-.016-.688-.678.114.1.586zm.041 1.83.152.576.454-.12-.01-.469-.595.013zm-4.59.088.134-.581h-.004l-.13.58zm-2.265-1.011zm-.819-1.86.594.003v-.003h-.594zm.284-1.301-.534-.263v.002l.534.262zm1.824-1.557.212.557.002-.001-.213-.556zm5.845-.151.593.046.04-.502-.49-.121-.143.577zm-.145 1.865-.11.584.652.124.052-.662-.594-.046zm-1.586-.763c-.893 0-1.644.095-2.192.336a1.789 1.789 0 0 0-.722.543 1.391 1.391 0 0 0-.284.845v.015-.001h1.19c0-.07.016-.109.042-.142a.636.636 0 0 1 .254-.172c.32-.141.87-.236 1.712-.236v-1.19zm-3.198 1.739c0 .612.274 1.117.788 1.451l.649-.997a.484.484 0 0 1-.246-.454h-1.19zm.794 1.456c.486.307 1.127.423 1.846.423v-1.19c-.622 0-.999-.105-1.21-.238l-.636 1.005zm1.846.423c.706 0 1.395-.058 2.069-.171l-.199-1.174a10.86 10.86 0 0 1-1.849.154h-.021.001v1.19zm1.375-.744.04 1.83 1.19-.026-.041-1.83-1.19.026zm.484 1.241c-.68.179-1.43.271-2.254.271v1.19c.912 0 1.765-.102 2.557-.31l-.303-1.15zM20 29.466c-.84 0-1.52-.066-2.051-.189l-.267 1.16c.647.149 1.424.218 2.318.218v-1.19zm-2.055-.189c-.568-.126-.978-.262-1.251-.395l-.522 1.069c.393.192.904.352 1.514.488l.259-1.162zm-1.251-.395a3.645 3.645 0 0 1-.766-.493l.006.005-.77.907c.298.252.634.468 1.008.65l.522-1.069zm-.76-.489c-.405-.342-.612-.789-.608-1.402l-1.19-.006c-.005.936.334 1.728 1.03 2.316l.768-.909zm-.608-1.406c0-.4.078-.742.224-1.04l-1.07-.523a3.463 3.463 0 0 0-.346 1.52v.046-.002h1.19zm.223-1.038c.27-.55.749-.978 1.502-1.264l-.422-1.112c-.982.373-1.72.984-2.147 1.85l1.068.526zm1.504-1.264c.791-.304 1.674-.461 2.656-.461v-1.19c-1.11 0-2.139.177-3.083.539l.427 1.111zm2.656-.461c1.002 0 1.945.112 2.832.331l.286-1.154a12.594 12.594 0 0 0-3.055-.367h-.066.003v1.19zm2.381-.292-.145 1.865 1.186.093.145-1.866-1.186-.092zm.56 1.326a8.922 8.922 0 0 0-1.691-.179h-.006v1.19c.418 0 .909.05 1.475.158l.222-1.168zm5.804.951-.003.595.605.003-.006-.605-.595.006zm-.256-.773-.405.436.006.005.4-.44zm-1.48.058.412.43.004-.005-.416-.425zm-.36.704-.587-.096-.114.687.697.004.003-.595zm4.374 3.172.36.474.214-.162.02-.267-.594-.045zm-1.284.476-.128-.582-.003.001.131.581zm-4.462-.163-.202.56.005.002.198-.562zm-1.016-.54-.37.466.007.006.362-.472zm-.68-.854-.534.264.002.002.532-.266zm.696-3.608zm5.439-.645.238-.546-.006-.002-.232.548zm1.365 1.255-.534.26.002.003.533-.264zm.232 1.04.594.043.002-.022v-.022h-.595zm-.069.959-.003.595.556.002.04-.554-.593-.043zm-4.712-.024.003-.595-.776-.003.198.75.575-.152zm.674.832-.294.518.002.002.29-.52zm3.614-.204V27.3h-.119l-.11.046.229.549zm.313 0 .594.045.048-.64h-.642v.595zm-1.792-1.692c-.005-.43-.104-.892-.451-1.207l-.8.882c-.006-.006.008.002.024.053a.988.988 0 0 1 .037.286l1.19-.013zM28.604 25c-.312-.29-.722-.386-1.126-.386v1.19c.232 0 .302.056.316.067l.81-.872zm-1.126-.386c-.443 0-.855.139-1.178.455l.833.85c.065-.064.16-.114.344-.114v-1.19zm-1.173.451a1.81 1.81 0 0 0-.534 1.026l-.001.01 1.174.193a.63.63 0 0 1 .185-.37l-.824-.858zm.049 1.728 2.098.011.006-1.19-2.098-.012-.006 1.19zm4.019 2.103c-.13.098-.449.236-1.053.369l.256 1.162c.628-.138 1.166-.318 1.515-.584l-.718-.947zm-1.056.37a7.32 7.32 0 0 1-1.662.194h-.002v1.19a8.72 8.72 0 0 0 1.926-.224l-.262-1.16zm-1.664.194c-.561 0-1.022-.026-1.39-.076l-.159 1.179c.438.059.956.087 1.55.087v-1.19zm-1.391-.076a5.36 5.36 0 0 1-1.078-.262l-.396 1.122c.432.152.871.259 1.315.318l.159-1.179zm-1.073-.26a3.177 3.177 0 0 1-.866-.459l.008.006-.724.944c.338.26.734.467 1.176.627l.406-1.118zm-.851-.448a1.901 1.901 0 0 1-.512-.642l-.005-.011-1.064.532c.209.419.488.774.842 1.054l.738-.933zm-.516-.65c-.125-.254-.2-.579-.2-.998h-1.19c0 .558.1 1.073.323 1.525l1.066-.528zm-.2-.998c0-.418.076-.788.218-1.117l-1.091-.474a3.9 3.9 0 0 0-.317 1.552v.041-.002h1.19zm.219-1.117c.15-.346.334-.601.542-.786l-.792-.889c-.358.318-.634.726-.841 1.201l1.091.474zm.541-.786c.64-.57 1.615-.9 3.02-.9v-1.19c-1.576 0-2.878.37-3.812 1.202l.792.888zm3.02-.9c.631 0 1.226.12 1.79.359l.465-1.096a5.622 5.622 0 0 0-2.232-.454h-.023.001v1.19zm1.784.357c.527.23.867.555 1.069.97l1.07-.52c-.341-.702-.91-1.212-1.662-1.541l-.476 1.091zm1.071.972c.111.225.17.48.17.776h1.19c0-.462-.096-.9-.294-1.302l-1.066.526zm.172.734-.07.958 1.187.086.07-.958-1.187-.086zm.527.406-4.712-.023-.006 1.19 4.712.023.006-1.19zm-5.29.724c.139.527.479.927.957 1.197l.585-1.036c-.235-.133-.344-.287-.391-.464l-1.15.303zm.958 1.199c.483.27 1.086.378 1.76.378v-1.19c-.565 0-.941-.094-1.179-.227l-.581 1.039zm1.76.377c.724 0 1.519-.196 2.374-.551l-.458-1.098c-.765.318-1.4.46-1.915.46v1.19zm2.144-.505h.314v-1.19h-.314v1.19zm-.279-.639-.11 1.476 1.187.088.11-1.475-1.187-.089z"/></symbol><symbol id="icon-modal-close" viewBox="0 0 32 32"><path d="M23.884 6.706 16 14.59 8.116 6.706a.996.996 0 0 0-1.672.736c0 .26.099.497.262.674l-.001-.001 7.88 7.884-7.882 7.882a.998.998 0 0 0 1.41 1.412l7.886-7.882 7.884 7.884a.996.996 0 0 0 1.672-.736.992.992 0 0 0-.262-.674l.001.001-7.884-7.884 7.884-7.886a.998.998 0 0 0-1.41-1.412v.002z"/></symbol><symbol id="icon-telegram" viewBox="0 0 32 32"><path fill="#f8d24e" style="fill:var(--color2,#f8d24e)" d="M32 16c0 8.837-7.163 16-16 16S0 24.837 0 16 7.163 0 16 0s16 7.163 16 16z"/><path d="m12.868 18.376-.318 4.169c.455 0 .651-.183.888-.401l2.131-1.901 4.414 3.018c.809.421 1.38.199 1.598-.696L24.48 9.892c.257-1.117-.433-1.554-1.222-1.28L6.226 14.698c-1.162.422-1.144 1.026-.198 1.301l4.355 1.264 10.115-5.907c.475-.295.908-.132.552.163l-8.182 6.856z"/></symbol><symbol id="icon-weight" viewBox="0 0 32 32"><path fill="#f8d24e" style="fill:var(--color2,#f8d24e)" d="M16 0c8.837 0 16 7.163 16 16s-7.163 16-16 16S0 24.837 0 16 7.163 0 16 0z"/><path style="fill:var(--color6,#000)" d="M14.688 4.874c-2.861.424-5.218 2.013-6.085 4.093-.276.657-.351 1.061-.351 1.853.005.585.026.802.117 1.118.186.621.319.936.595 1.382l.256.413-.288.352c-2.271 2.826-2.521 6.8-.627 9.931.707 1.175 1.862 2.329 2.989 3.002l.335.196 9.175-.077.218-.119c.761-.429 1.835-1.387 2.436-2.163a9.003 9.003 0 0 0 1.737-3.993l.007-.053c.085-.533.085-2.112-.005-2.614-.271-1.547-.851-2.872-1.766-4.047a4.693 4.693 0 0 1-.314-.424c0-.01.096-.171.207-.352.255-.406.467-.875.612-1.373l.01-.04c.143-.518.143-1.811 0-2.329-.511-1.837-2.042-3.369-4.207-4.212-.607-.238-1.644-.492-2.314-.574-.622-.072-2.159-.058-2.739.031zm3.238.843c2.84.554 4.92 2.292 5.303 4.435.085.481.032 1.299-.111 1.754a5.58 5.58 0 0 1-.723 1.412c-.128.182-.234.388-.234.456s.111.243.271.419c1.329 1.475 2.031 3.322 2.031 5.32-.005 2.272-.877 4.264-2.558 5.827a8.892 8.892 0 0 1-.915.75l-.399.269-8.792.036-.34-.218c-1.234-.801-2.346-2.126-2.963-3.534a7.945 7.945 0 0 1-.223-5.697c.335-.963.782-1.749 1.462-2.577.277-.332.404-.528.404-.621 0-.078-.138-.332-.319-.595-.638-.927-.899-1.956-.744-2.929.16-.983.606-1.791 1.431-2.592 1.074-1.041 2.574-1.73 4.334-1.988.728-.109 2.34-.067 3.085.072z"/><path style="fill:var(--color6,#000)" d="M14.927 6.628c-2.18.357-3.888 1.568-4.447 3.157-.128.357-.148.497-.148 1.009s.021.652.148 1.009c.08.228.229.544.33.704.277.445.399.461.947.129a8.462 8.462 0 0 1 2.683-1.062l.056-.01c.659-.134 1.925-.186 2.643-.103a8.737 8.737 0 0 1 3.313 1.107c.277.16.559.294.628.294.404 0 .92-1.164.92-2.069 0-2.013-1.926-3.736-4.654-4.166-.58-.093-1.862-.093-2.42 0zm2.632.828c.915.196 1.756.57 2.388 1.061.851.657 1.308 1.573 1.234 2.458-.027.352-.16.828-.239.88-.021.01-.319-.114-.659-.279a10.17 10.17 0 0 0-2.254-.779l-.07-.013c-.495-.103-.702-.119-1.809-.114-1.09 0-1.318.016-1.792.114a9.606 9.606 0 0 0-2.244.766c-.793.378-.75.383-.894-.083-.186-.605-.069-1.407.292-2.013.192-.321.718-.854 1.101-1.117.73-.502 1.368-.73 2.739-.979.282-.051 1.846.021 2.208.099zm-.866 6.675c-.149.187-.149.363.005.513.101.099.202.124.57.15a4.673 4.673 0 0 1 2.027.623l-.022-.012c.436.259 1.101.885 1.399 1.335.442.646.744 1.573.744 2.257 0 .238.022.31.133.413.17.171.394.171.559 0 .117-.119.122-.15.09-.657-.149-2.505-2.292-4.595-4.856-4.736l-.532-.031-.116.145z"/></symbol><symbol id="arrow-right-icon" viewBox="0 0 22 32"><path d="M3.104.726c-.434.434-.702 1.034-.702 1.696s.268 1.262.702 1.696L14.982 16 3.104 27.878a2.4 2.4 0 0 0 3.394 3.391l-.001.001 13.578-13.574c.434-.434.702-1.034.702-1.696s-.268-1.262-.702-1.696L6.497.726C6.063.292 5.463.024 4.801.024S3.539.292 3.105.726z"/></symbol><symbol id="icon-solo-ice-cream" viewBox="0 0 32 32"><path fill="#f8d24e" style="fill:var(--color1,#f8d24e)" d="M16 0c8.837 0 16 7.163 16 16s-7.163 16-16 16S0 24.837 0 16 7.163 0 16 0z"/><path style="fill:var(--color2,#000)" d="M16.078 4.557c.058.155.173.902.173 1.133v.008c0 .589-.229 1.124-.603 1.522l.001-.001c-.323.347-.646.54-1.422.853-.863.352-1.22.564-1.624.964-.41.41-.651.858-.737 1.384-.097.573 0 .979.294 1.21l.149.115-.236.15c-.477.314-1.344 1.051-1.494 1.277-.289.434-.26.838.067 1.003l.154.077-.173.164c-.26.246-.314.415-.275.858.024.294.015.454-.052.694-.082.314-.082.318.024.54.106.217.405.492.675.607.13.058.134.077.164.52.014.256.038 1.07.058 1.812.015.742.049 1.422.077 1.504a.576.576 0 0 0 .198.26c.279.193.472.401.597.641.14.275.294.95.762 3.283l.328 1.638.202.193c.385.381 1.123.554 2.338.554 1.219 0 1.947-.169 2.333-.55l.207-.197.298-1.519c.66-3.321.718-3.504 1.234-3.914.159-.131.314-.289.342-.362.034-.082.068-.714.092-1.668.019-.848.049-1.687.068-1.866l.029-.323.314-.237c.395-.303.549-.578.549-1.002-.004-.501-.333-1.051-.93-1.542l-.285-.231.14-.198c.583-.804.217-1.918-.868-2.66l-.328-.227.12-.125c.535-.573.622-2.285.173-3.475-.269-.708-.887-1.48-1.644-2.049-.37-.28-1.393-.897-1.484-.897-.019 0-.019.034-.004.077zm1.388 1.683c.256.251.564.593.685.766.718 1.003.901 2.261.467 3.187-.173.376-.694.934-1.176 1.267-.737.511-2.396 1.37-3.552 1.841-1.86.757-2.941.902-3.066.405-.049-.188.092-.337.685-.733.534-.366 2.935-2.15 2.979-2.222.014-.019-.232.092-.54.246-1.046.531-1.542.429-1.518-.308.014-.535.4-1.142.934-1.489.136-.086.555-.28.941-.434 1.267-.511 1.653-.771 2.082-1.412.256-.381.535-1.085.554-1.384.005-.106.024-.188.038-.188s.232.207.486.458zm1.315 5.476c.352.197.718.535.877.8.28.477.136.954-.467 1.562-.655.666-1.773 1.302-3.003 1.706-1.133.371-2.217.545-3.77.598l-.964.034.627.038c.81.053 2.376.005 2.983-.092 1.615-.256 2.989-.767 3.972-1.47.222-.159.453-.289.516-.289.159 0 .853.666.993.945a.727.727 0 0 1 .082.429c-.072.641-.853.984-2.737 1.21-2.304.275-5.316.005-6.604-.588-.608-.28-.708-.439-.554-.863.048-.135.058-.294.038-.521-.024-.299-.019-.337.086-.448.241-.26.646-.41 2.131-.786.52-.134 1.229-.347 1.566-.472.819-.299 2.357-1.075 3.07-1.552.67-.444.767-.463 1.157-.241zm-6.401 5.899c1.012.294 1.909.381 3.577.347 1.253-.024 2.024-.101 3.137-.299.227-.038.424-.072.449-.072.053 0 .038 1.851-.019 2.338-.063.516-.203.916-.352 1.012-.154.101-.925.207-1.957.265-2.116.115-4.29 0-4.964-.27-.366-.149-.405-.342-.41-2.131 0-1.19.01-1.354.072-1.33.038.014.25.077.467.14zm1.143 4.098c.348.044.723.086.838.101l.208.024-.184.202c-.236.255-.598.766-.728 1.027-.149.299-.198.318-.419.198l-.188-.106-.106-.655a16.202 16.202 0 0 0-.156-.876l.02.119c-.044-.125-.087-.125.713-.033zm5.138-.053c0 .01-.024.134-.049.275-.029.144-.149.93-.269 1.749-.246 1.711-.41 2.516-.559 2.786-.207.362-.704.573-1.508.641-.314.024-1.258-.038-1.311-.087-.038-.043.79-1.07.921-1.137.12-.068.154-.058.563.154.477.252.719.29.719.131s-.125-.314-.434-.525c-.284-.203-.385-.319-.385-.454 0-.038.14-.255.308-.482s.414-.588.54-.805l.237-.39.216.029c.438.063.554.058.54-.038a1.142 1.142 0 0 0-.184-.304c-.092-.12-.164-.241-.164-.265 0-.092.448-.935.593-1.114.125-.154.227-.232.227-.164zm-3.012.385c.241.159 1.147.945 1.204 1.041.024.044-.906 1.499-1.089 1.706-.019.024-.12-.024-.221-.101a14.78 14.78 0 0 0-.777-.541l-.061-.037-.651-.429.39-.66c.694-1.162.68-1.142.829-1.142.077 0 .246.072.376.164zm1.826.173c-.169.207-.308.338-.366.338-.125 0-.328-.111-.67-.362l-.285-.207.57-.034c.251-.009.479-.025.706-.047l-.046.004c.386-.062.386-.058.092.309zm-3.644 2.319c.444.173 1.196.583 1.412.767.154.125.154.134.092.289a4.75 4.75 0 0 1-.31.533l.011-.017a8.357 8.357 0 0 0-.3.491l-.023.044c-.154.299-.202.323-.52.237-.342-.102-.525-.275-.621-.589-.131-.438-.338-1.677-.314-1.87.01-.072.212-.029.573.116z"/></symbol></defs></svg>