<svg aria-hidden="true" style="position: absolute; width: 0; height: 0; overflow: hidden;" version="1.1" xmlns="http://www.w3.org/2000/svg" xmlns:xlink="http://www.w3.org/1999/xlink">
<defs>
<symbol id="icon-Arrow" viewBox="0 0 82 32">
<path fill="#fcfcfc" style="fill: var(--color3, #fcfcfc)" d="M81.414 17.414c0.781-0.781 0.781-2.047 0-2.828l-12.728-12.728c-0.781-0.781-2.047-0.781-2.828 0s-0.781 2.047 0 2.828l11.314 11.314-11.314 11.314c-0.781 0.781-0.781 2.047 0 2.828s2.047 0.781 2.828 0l12.728-12.728zM0 18h80v-4h-80v4z"></path>
</symbol>
<symbol id="icon-burger-menu" viewBox="0 0 32 32">
<path fill="#fff" style="fill: var(--color1, #fff)" d="M26.733 14h-21.466c-0.7 0-1.267 0.425-1.267 0.95v0.1c0 0.525 0.567 0.95 1.267 0.95h21.466c0.7 0 1.267-0.425 1.267-0.95v-0.1c0-0.525-0.567-0.95-1.267-0.95zM26.733 20h-21.466c-0.7 0-1.267 0.425-1.267 0.95v0.1c0 0.525 0.567 0.95 1.267 0.95h21.466c0.7 0 1.267-0.425 1.267-0.95v-0.1c0-0.525-0.567-0.95-1.267-0.95zM26.733 8h-21.466c-0.7 0-1.267 0.425-1.267 0.95v0.1c0 0.525 0.567 0.95 1.267 0.95h21.466c0.7 0 1.267-0.425 1.267-0.95v-0.1c0-0.525-0.567-0.95-1.267-0.95z"></path>
</symbol>
<symbol id="icon-cow" viewBox="0 0 32 32">
<path fill="#f8d24e" style="fill: var(--color2, #f8d24e)" d="M16 0c8.837 0 16 7.163 16 16s-7.163 16-16 16c-8.837 0-16-7.163-16-16s7.163-16 16-16z"></path>
<path fill="#131313" style="fill: var(--color3, #131313)" d="M8.922 4.618c-0.188 0.163-0.725 1.283-0.918 1.894-0.229 0.758-0.307 1.326-0.276 2.111 0.042 1.12 0.323 1.97 0.943 2.858 0.162 0.232 0.292 0.433 0.292 0.449 0 0.011-0.099 0.021-0.224 0.021-0.538 0-1.544 0.179-2.315 0.412-1.225 0.368-1.944 1.012-1.944 1.732 0 0.255 0.229 0.687 0.474 0.909 0.474 0.428 1.512 0.834 2.627 1.028 0.386 0.070 1.533 0.189 1.788 0.195 0.047 0 0.063 0.249 0.063 1.066 0 0.703 0.026 1.25 0.078 1.585 0.188 1.201 0.771 2.474 1.542 3.372l0.266 0.308-0.177 0.287c-0.26 0.406-0.36 0.714-0.39 1.174-0.079 1.104 0.609 2.083 1.939 2.771 2.532 1.315 6.468 0.8 7.944-1.039 0.719-0.899 0.803-1.926 0.234-2.858l-0.177-0.287 0.318-0.384c0.595-0.714 0.98-1.428 1.272-2.332 0.244-0.769 0.339-1.51 0.339-2.685 0-0.536 0.015-0.979 0.042-0.979 0.24-0.006 1.392-0.13 1.757-0.195 1.121-0.195 2.138-0.595 2.627-1.028 0.245-0.222 0.474-0.655 0.474-0.909 0-0.801-0.813-1.45-2.325-1.84-0.495-0.13-1.428-0.287-1.882-0.314l-0.214-0.017 0.235-0.324c0.292-0.396 0.657-1.164 0.797-1.667 0.396-1.455 0.151-3.149-0.699-4.768-0.354-0.671-0.599-0.828-0.886-0.563-0.109 0.104-0.156 0.244-0.26 0.753-0.323 1.619-0.923 2.901-1.798 3.848l-0.386 0.422h-8.246l-0.344-0.374c-0.854-0.942-1.475-2.273-1.798-3.897-0.104-0.509-0.151-0.649-0.26-0.752-0.172-0.157-0.339-0.152-0.531 0.016zM9.588 7.828c0.276 0.606 0.621 1.174 1.027 1.699l0.323 0.417-0.339 0.255c-0.318 0.243-0.615 0.589-0.845 0.985l-0.099 0.179-0.25-0.341c-0.855-1.18-1.069-2.625-0.615-4.124 0.219-0.725 0.214-0.719 0.412-0.092 0.094 0.303 0.271 0.763 0.386 1.023zM23.156 6.686c0.189 0.524 0.298 1.13 0.298 1.76 0 0.022-0 0.045-0 0.067l0-0.003c0 0.984-0.26 1.818-0.808 2.565l-0.245 0.335-0.182-0.308c-0.236-0.4-0.542-0.734-0.903-0.995l-0.009-0.007c-0.141-0.092-0.25-0.184-0.25-0.195 0-0.016 0.099-0.141 0.224-0.276 0.579-0.644 1.199-1.802 1.507-2.798 0.093-0.308 0.188-0.563 0.203-0.563s0.094 0.189 0.166 0.417zM20.493 10.642c0.579 0.243 1.131 0.941 1.22 1.532 0.047 0.325 0.156 0.531 0.297 0.563 0.063 0.010 0.495 0.049 0.959 0.081 1.647 0.109 2.945 0.461 3.498 0.942 0.255 0.227 0.229 0.416-0.078 0.65-0.615 0.465-1.944 0.817-3.3 0.877-0.897 0.038-1.084 0.064-1.204 0.189-0.089 0.092-0.099 0.189-0.099 1.169 0 1.326-0.068 2.089-0.235 2.706-0.234 0.838-0.698 1.732-1.24 2.365l-0.224 0.26-0.464-0.276c-0.495-0.307-1.069-0.547-1.681-0.69l-0.039-0.008c-1.976-0.472-4.16-0.184-5.629 0.741l-0.339 0.216-0.214-0.255c-0.292-0.34-0.751-1.071-0.933-1.483-0.401-0.931-0.521-1.688-0.521-3.355 0-1.619 0.083-1.5-1.116-1.564-1.533-0.081-2.701-0.357-3.436-0.823-0.542-0.346-0.453-0.655 0.303-1.018 0.724-0.351 1.72-0.563 3.101-0.649 1.074-0.070 1.1-0.086 1.199-0.606 0.146-0.785 0.724-1.434 1.455-1.64 0.182-0.054 1.204-0.065 4.332-0.060l4.092 0.010 0.297 0.125zM17.564 21.844c1.277 0.314 2.231 0.899 2.643 1.624 0.099 0.168 0.141 0.341 0.161 0.606 0.021 0.33 0.006 0.412-0.12 0.682-0.579 1.229-2.705 2.040-4.868 1.856-2.601-0.216-4.311-1.667-3.638-3.090 0.365-0.769 1.6-1.505 2.903-1.722 0.214-0.032 0.428-0.070 0.469-0.081s0.511-0.011 1.043 0c0.724 0.016 1.073 0.049 1.407 0.124z"></path>
<path fill="#131313" style="fill: var(--color3, #131313)" d="M12.392 13.351c-0.323 0.109-0.542 0.25-0.834 0.541-0.255 0.243-0.276 0.53-0.062 0.703 0.198 0.162 0.385 0.141 0.625-0.070 0.302-0.265 0.537-0.374 0.829-0.374 0.292-0.005 0.516 0.098 0.829 0.374 0.24 0.211 0.428 0.232 0.625 0.070 0.104-0.087 0.136-0.157 0.136-0.32 0-0.167-0.036-0.243-0.219-0.427-0.516-0.519-1.283-0.719-1.929-0.498zM18.47 13.345c-0.333 0.125-0.761 0.406-0.932 0.617-0.167 0.206-0.173 0.438 0 0.612 0.172 0.184 0.38 0.173 0.63-0.033 0.615-0.509 1.074-0.525 1.642-0.054 0.146 0.125 0.312 0.222 0.365 0.222 0.255 0 0.464-0.227 0.464-0.498 0-0.173-0.433-0.573-0.824-0.763-0.433-0.211-0.948-0.249-1.345-0.102zM13.149 23.361c-0.151 0.146-0.204 0.356-0.125 0.525 0.058 0.134 0.146 0.189 0.506 0.287 0.162 0.043 0.23 0.097 0.287 0.232 0.073 0.179 0.078 0.179 0.48 0.195l0.401 0.017v-0.152c-0.005-0.216-0.125-0.53-0.282-0.746-0.182-0.25-0.5-0.412-0.86-0.444-0.245-0.021-0.307-0.011-0.406 0.087zM18.127 23.323c-0.26 0.070-0.636 0.422-0.74 0.698-0.052 0.145-0.087 0.313-0.098 0.487l-0 0.006c-0.011 0.232 0.010 0.287 0.135 0.4 0.307 0.271 0.714 0.060 0.714-0.373 0-0.211 0.156-0.357 0.433-0.411 0.292-0.054 0.397-0.173 0.401-0.449 0-0.362-0.323-0.503-0.845-0.357z"></path>
</symbol>
<symbol id="icon-facebook" viewBox="0 0 32 32">
<path fill="#f8d24e" style="fill: var(--color2, #f8d24e)" d="M16 32c8.837 0 16-7.163 16-16s-7.163-16-16-16-16 7.163-16 16 7.163 16 16 16z"></path>
<path fill="#84a178" style="fill: var(--color4, #84a178)" d="M20.446 15.981h-2.611v9.619h-3.955v-9.619h-1.88v-3.379h1.88v-2.187c0-1.564 0.739-4.014 3.991-4.014l2.929 0.012v3.281h-2.125c-0.348 0-0.839 0.176-0.839 0.922v1.989h2.955l-0.345 3.377z"></path>
</symbol>
<symbol id="icon-github" viewBox="0 0 32 32">
<path fill="#f8d24e" style="fill: var(--color2, #f8d24e)" d="M32 16c0 8.837-7.163 16-16 16s-16-7.163-16-16c0-8.837 7.163-16 16-16s16 7.163 16 16z"></path>
<path fill="#84a178" style="fill: var(--color4, #84a178)" d="M16 6.588c-5.17 0-9.412 4.242-9.412 9.412 0 4.411 3.096 8.419 7.206 9.412v-3.113c-0.408 0.088-0.781 0.091-1.196-0.031-0.556-0.164-1.008-0.535-1.344-1.099-0.214-0.36-0.593-0.753-0.988-0.724l-0.097-1.098c0.856-0.073 1.594 0.521 2.033 1.258 0.196 0.328 0.421 0.52 0.709 0.605 0.278 0.083 0.577 0.043 0.925-0.080 0.088-0.697 0.408-0.958 0.649-1.327-2.452-0.365-3.429-1.666-3.816-2.692-0.514-1.364-0.238-3.066 0.67-4.143 0.018-0.021 0.050-0.075 0.038-0.113-0.417-1.259 0.090-2.3 0.109-2.41 0.481 0.141 0.559-0.143 2.089 0.786l0.264 0.159c0.111 0.066 0.075 0.028 0.186 0.019 0.59-0.166 1.269-0.266 1.97-0.276l0.006-0c0.668 0.008 1.336 0.104 2.002 0.284l0.086 0.009c-0.008-0.002 0.024-0.006 0.075-0.037 1.911-1.158 1.842-0.779 2.355-0.946 0.019 0.111 0.519 1.169 0.106 2.411-0.056 0.171 1.656 1.739 0.708 4.256-0.388 1.026-1.365 2.328-3.816 2.693 0.314 0.48 0.692 0.734 0.69 1.722v3.886c4.109-0.993 7.206-5 7.206-9.412 0-5.17-4.242-9.412-9.412-9.412z"></path>
</symbol>
<symbol id="icon-ice-cream" viewBox="0 0 32 32">
<path fill="#f8d24e" style="fill: var(--color2, #f8d24e)" d="M16.325 14.204c1.533-4.148-1.642-6.418-3.745-7.91-0.402-0.305-0.805-0.59-1.13-0.85-0.866-0.732-1.412-1.82-1.412-3.034 0-0.378 0.053-0.743 0.152-1.090l-0.007 0.028c0.010-0.034 0.015-0.074 0.015-0.114 0-0.209-0.149-0.384-0.346-0.423l-0.003-0c-0.026-0.006-0.056-0.009-0.087-0.009-0.053 0-0.103 0.009-0.15 0.026l0.003-0.001c-0.748 0.3-1.393 0.69-1.961 1.169l0.011-0.009c-1.1 0.852-1.802 2.171-1.806 3.654v0.001c-0.397 0.312-0.747 0.678-1.042 1.086-0.483 0.651-0.773 1.47-0.773 2.356 0 0.067 0.002 0.134 0.005 0.2l-0-0.009c-1.007 0.925-1.637 2.249-1.637 3.719 0 0.36 0.038 0.712 0.11 1.051l-0.006-0.033c-0.398 0.243-0.66 0.675-0.66 1.169 0 0.131 0.019 0.258 0.053 0.379l-0.002-0.010c0.167 0.578 0.691 0.994 1.313 0.994 0.004 0 0.008-0 0.013-0h0.027v2.358c0 0 0 0.001 0 0.002 0 0.498 0.404 0.902 0.902 0.902 0.001 0 0.002 0 0.003 0h0.704l1.147 9.908c0.050 0.453 0.431 0.802 0.893 0.802 0.001 0 0.003 0 0.004 0h4.77c0.464-0.001 0.846-0.349 0.901-0.798l0-0.004 1.146-9.908h0.704c0.498-0.001 0.903-0.404 0.905-0.902v-2.359h0.028c0.758-0 1.373-0.615 1.373-1.374 0-0.188-0.038-0.368-0.107-0.531l0.003 0.009c-0.069-0.168-0.171-0.319-0.3-0.446l-0.012 0.004zM5.999 6.678c0.579 2.17 2.816 3.024 4.855 3.787 0.066 0.043 0.147 0.068 0.234 0.068 0.242 0 0.438-0.196 0.438-0.438 0-0.216-0.156-0.395-0.361-0.431l-0.003-0c-2.196-0.831-4.268-1.605-4.424-3.823-0.004-0.067-0.007-0.146-0.007-0.224 0-1.204 0.575-2.274 1.465-2.95l0.009-0.007c0.306-0.254 0.634-0.48 0.982-0.674-0.011 0.125-0.017 0.27-0.017 0.417s0.006 0.292 0.018 0.436l-0.001-0.019c0.1 1.331 0.736 2.497 1.69 3.295l0.008 0.006c0.334 0.285 0.748 0.578 1.206 0.89 1.058 0.758 2.261 1.605 3.025 2.752 0.477 0.681 0.763 1.527 0.763 2.439 0 0.589-0.119 1.15-0.334 1.661l0.011-0.028h-1.778c-3.665 0-7.877-1.011-8.709-3.843-0.078-0.265-0.123-0.57-0.123-0.886 0-0.954 0.413-1.812 1.069-2.405l0.003-0.003-0.019-0.020zM9.298 20.354l1.344 1.339-1.344 1.34-1.344-1.348 1.344-1.331zM12.378 23.871l-1.11 1.107-1.344-1.34 1.344-1.336 1.166 1.16-0.056 0.409zM9.298 26.944l-1.344-1.34 1.344-1.339 1.344 1.339-1.344 1.34zM8.682 23.646l-1.343 1.34-1.118-1.115-0.048-0.401 1.166-1.16 1.344 1.336zM6.72 25.604l-0.27 0.269-0.068-0.61 0.338 0.341zM6.579 26.976l0.76-0.758 1.477 1.485c0.007 0.030 0.016 0.059 0.028 0.088h-2.173l-0.093-0.814zM11.262 26.218l0.76 0.758-0.093 0.802h-2.232l1.565-1.56zM12.146 25.874l-0.27-0.27 0.342-0.341-0.072 0.61zM12.548 22.367l-0.672-0.682 0.854-0.85-0.181 1.533zM11.258 21.075l-1.275-1.267h2.55l-1.274 1.267zM7.335 21.075l-1.276-1.267h2.55l-1.275 1.267zM11.679 29.643h-4.767c-0.015-0.002-0.026-0.013-0.028-0.028v-0l-0.112-0.962h5.052l-0.109 0.962c-0.002 0.016-0.015 0.028-0.032 0.028-0 0-0 0-0 0v0h-0.005zM15.368 15.668h-1.4c-0.012-0.001-0.026-0.002-0.040-0.002-0.242 0-0.438 0.195-0.44 0.437v0c0 0 0 0 0 0.001 0 0.241 0.196 0.437 0.437 0.437 0.015 0 0.030-0.001 0.045-0.002l-0.002 0h0.499v2.359c-0.002 0.016-0.015 0.028-0.032 0.028-0 0-0 0-0 0v0h-10.286c-0 0-0 0-0 0-0.016 0-0.030-0.012-0.032-0.028l-0-0v-2.359h7.968c0.223-0.023 0.395-0.209 0.395-0.436 0-0.113-0.042-0.215-0.112-0.293l0 0c-0.071-0.078-0.17-0.131-0.281-0.141l-0.002-0h-8.849c-0.013 0.001-0.028 0.002-0.043 0.002-0.276 0-0.499-0.223-0.501-0.498v-0c0-0 0-0.001 0-0.002 0-0.274 0.222-0.496 0.496-0.496 0.017 0 0.034 0.001 0.050 0.002l-0.002-0h0.913c0.223-0.022 0.396-0.208 0.397-0.435v-0c-0-0.227-0.174-0.413-0.395-0.434l-0.002-0h-0.804c-0.048-0.24-0.075-0.515-0.075-0.797 0-1.024 0.359-1.964 0.958-2.701l-0.006 0.008c0.282 0.874 1.006 2.070 2.816 3.021 1.701 0.886 3.954 1.339 6.693 1.339h1.609c0.013-0.001 0.028-0.002 0.043-0.002 0.276 0 0.499 0.223 0.501 0.498v0c0 0 0 0.001 0 0.001 0 0.274-0.222 0.497-0.497 0.497-0.017 0-0.033-0.001-0.049-0.002l0.002 0h0.028zM18.866 27.772l-0.325 0.498 0.007 0.004 0.318-0.502zM22.363 27.94l0.595-0.013-0.016-0.688-0.678 0.114 0.1 0.586zM22.404 29.77l0.152 0.576 0.454-0.12-0.010-0.469-0.595 0.013zM17.814 29.858l0.134-0.581h-0.004l-0.13 0.58zM15.549 28.847v0zM14.73 26.987l0.594 0.003v-0.003h-0.594zM15.014 25.686l-0.534-0.263v0.002l0.534 0.262zM16.838 24.129l0.212 0.557 0.002-0.001-0.213-0.556zM22.683 23.978l0.593 0.046 0.040-0.502-0.49-0.121-0.143 0.577zM22.538 25.843l-0.11 0.584 0.652 0.124 0.052-0.662-0.594-0.046zM20.952 25.080c-0.893 0-1.644 0.095-2.192 0.336-0.281 0.123-0.536 0.298-0.722 0.543-0.177 0.232-0.284 0.526-0.284 0.845 0 0.005 0 0.010 0 0.015v-0.001h1.19c0-0.070 0.016-0.109 0.042-0.142 0.031-0.040 0.101-0.105 0.254-0.172 0.32-0.141 0.87-0.236 1.712-0.236v-1.19zM17.754 26.819c0 0.612 0.274 1.117 0.788 1.451l0.649-0.997c-0.176-0.115-0.246-0.246-0.246-0.454h-1.19zM18.548 28.275c0.486 0.307 1.127 0.423 1.846 0.423v-1.19c-0.622 0-0.999-0.105-1.21-0.238l-0.636 1.005zM20.394 28.698c0.706 0 1.395-0.058 2.069-0.171l-0.199-1.174c-0.556 0.098-1.196 0.154-1.849 0.154-0.007 0-0.014 0-0.021-0h0.001v1.19zM21.769 27.954l0.040 1.83 1.19-0.026-0.041-1.83-1.19 0.026zM22.253 29.195c-0.68 0.179-1.43 0.271-2.254 0.271v1.19c0.912 0 1.765-0.102 2.557-0.31l-0.303-1.15zM20 29.466c-0.84 0-1.52-0.066-2.051-0.189l-0.267 1.16c0.647 0.149 1.424 0.218 2.318 0.218v-1.19zM17.945 29.277c-0.568-0.126-0.978-0.262-1.251-0.395l-0.522 1.069c0.393 0.192 0.904 0.352 1.514 0.488l0.259-1.162zM16.694 28.882c-0.29-0.14-0.539-0.303-0.766-0.493l0.006 0.005-0.77 0.907c0.298 0.252 0.634 0.468 1.008 0.65l0.522-1.069zM15.934 28.393c-0.405-0.342-0.612-0.789-0.608-1.402l-1.19-0.006c-0.005 0.936 0.334 1.728 1.030 2.316l0.768-0.909zM15.326 26.987c0-0.4 0.078-0.742 0.224-1.040l-1.070-0.523c-0.218 0.444-0.346 0.967-0.346 1.52 0 0.015 0 0.030 0 0.046l-0-0.002h1.19zM15.549 25.949c0.27-0.55 0.749-0.978 1.502-1.264l-0.422-1.112c-0.982 0.373-1.72 0.984-2.147 1.85l1.068 0.526zM17.053 24.685c0.791-0.304 1.674-0.461 2.656-0.461v-1.19c-1.11 0-2.139 0.177-3.083 0.539l0.427 1.111zM19.709 24.224c1.002 0 1.945 0.112 2.832 0.331l0.286-1.154c-0.917-0.233-1.971-0.367-3.055-0.367-0.022 0-0.044 0-0.066 0h0.003v1.19zM22.090 23.932l-0.145 1.865 1.186 0.093 0.145-1.866-1.186-0.092zM22.65 25.258c-0.507-0.107-1.092-0.171-1.691-0.179l-0.006-0v1.19c0.418 0 0.909 0.050 1.475 0.158l0.222-1.168zM28.454 26.209l-0.003 0.595 0.605 0.003-0.006-0.605-0.595 0.006zM28.198 25.436l-0.405 0.436 0.006 0.005 0.4-0.44zM26.718 25.494l0.412 0.43 0.004-0.005-0.416-0.425zM26.358 26.198l-0.587-0.096-0.114 0.687 0.697 0.004 0.003-0.595zM30.732 29.37l0.36 0.474 0.214-0.162 0.020-0.267-0.594-0.045zM29.448 29.846l-0.128-0.582-0.003 0.001 0.131 0.581zM24.986 29.683l-0.202 0.56 0.005 0.002 0.198-0.562zM23.97 29.143l-0.37 0.466 0.007 0.006 0.362-0.472zM23.29 28.289l-0.534 0.264 0.002 0.002 0.532-0.266zM23.986 24.681v0zM29.425 24.036l0.238-0.546-0.006-0.002-0.232 0.548zM30.79 25.291l-0.534 0.26 0.002 0.003 0.533-0.264zM31.022 26.331l0.594 0.043 0.002-0.022v-0.022h-0.595zM30.953 27.29l-0.003 0.595 0.556 0.002 0.040-0.554-0.593-0.043zM26.241 27.266l0.003-0.595-0.776-0.003 0.198 0.75 0.575-0.152zM26.915 28.098l-0.294 0.518 0.002 0.002 0.29-0.52zM30.529 27.894v-0.594h-0.119l-0.11 0.046 0.229 0.549zM30.842 27.894l0.594 0.045 0.048-0.64h-0.642v0.595zM29.050 26.202c-0.005-0.43-0.104-0.892-0.451-1.207l-0.8 0.882c-0.006-0.006 0.008 0.002 0.024 0.053 0.018 0.054 0.035 0.146 0.037 0.286l1.19-0.013zM28.604 25c-0.312-0.29-0.722-0.386-1.126-0.386v1.19c0.232 0 0.302 0.056 0.316 0.067l0.81-0.872zM27.478 24.614c-0.443 0-0.855 0.139-1.178 0.455l0.833 0.85c0.065-0.064 0.16-0.114 0.344-0.114v-1.19zM26.305 25.065c-0.279 0.269-0.472 0.626-0.534 1.026l-0.001 0.010 1.174 0.193c0.019-0.146 0.087-0.274 0.185-0.37l0-0-0.824-0.858zM26.354 26.793l2.098 0.011 0.006-1.19-2.098-0.012-0.006 1.19zM30.373 28.896c-0.13 0.098-0.449 0.236-1.053 0.369l0.256 1.162c0.628-0.138 1.166-0.318 1.515-0.584l-0.718-0.947zM29.317 29.266c-0.499 0.121-1.072 0.191-1.662 0.194h-0.002v1.19c0.629 0 1.272-0.076 1.926-0.224l-0.262-1.16zM27.653 29.46c-0.561 0-1.022-0.026-1.39-0.076l-0.159 1.179c0.438 0.059 0.956 0.087 1.55 0.087v-1.19zM26.262 29.384c-0.362-0.048-0.72-0.136-1.078-0.262l-0.396 1.122c0.432 0.152 0.871 0.259 1.315 0.318l0.159-1.179zM25.189 29.124c-0.328-0.115-0.611-0.268-0.866-0.459l0.008 0.006-0.724 0.944c0.338 0.26 0.734 0.467 1.176 0.627l0.406-1.118zM24.338 28.676c-0.216-0.175-0.39-0.393-0.512-0.642l-0.005-0.011-1.064 0.532c0.209 0.419 0.488 0.774 0.842 1.054l0.738-0.933zM23.822 28.026c-0.125-0.254-0.2-0.579-0.2-0.998h-1.19c0 0.558 0.1 1.073 0.323 1.525l1.066-0.528zM23.622 27.028c0-0.418 0.076-0.788 0.218-1.117l-1.091-0.474c-0.2 0.458-0.317 0.991-0.317 1.552 0 0.014 0 0.027 0 0.041l-0-0.002h1.19zM23.841 25.911c0.15-0.346 0.334-0.601 0.542-0.786l-0.792-0.889c-0.358 0.318-0.634 0.726-0.841 1.201l1.091 0.474zM24.382 25.125c0.64-0.57 1.615-0.9 3.020-0.9v-1.19c-1.576 0-2.878 0.37-3.812 1.202l0.792 0.888zM27.402 24.225c0.631 0 1.226 0.12 1.79 0.359l0.465-1.096c-0.659-0.287-1.426-0.454-2.232-0.454-0.008 0-0.016 0-0.023 0h0.001v1.19zM29.186 24.582c0.527 0.23 0.867 0.555 1.069 0.97l1.070-0.52c-0.341-0.702-0.91-1.212-1.662-1.541l-0.476 1.091zM30.257 25.554c0.111 0.225 0.17 0.48 0.17 0.776h1.19c0-0.462-0.096-0.9-0.294-1.302l-1.066 0.526zM30.429 26.288l-0.070 0.958 1.187 0.086 0.070-0.958-1.187-0.086zM30.956 26.694l-4.712-0.023-0.006 1.19 4.712 0.023 0.006-1.19zM25.666 27.418c0.139 0.527 0.479 0.927 0.957 1.197l0.585-1.036c-0.235-0.133-0.344-0.287-0.391-0.464l-1.15 0.303zM26.624 28.617c0.483 0.27 1.086 0.378 1.76 0.378v-1.19c-0.565 0-0.941-0.094-1.179-0.227l-0.581 1.039zM28.384 28.994c0.724 0 1.519-0.196 2.374-0.551l-0.458-1.098c-0.765 0.318-1.4 0.46-1.915 0.46v1.19zM30.528 28.489h0.314v-1.19h-0.314v1.19zM30.249 27.85l-0.11 1.476 1.187 0.088 0.11-1.475-1.187-0.089z"></path>
</symbol>
<symbol id="icon-logo" viewBox="0 0 32 32">
<path fill="#f8d24e" style="fill: var(--color2, #f8d24e)" d="M16.325 14.204c1.533-4.148-1.642-6.418-3.745-7.91-0.402-0.305-0.805-0.59-1.13-0.85-0.866-0.732-1.412-1.82-1.412-3.034 0-0.378 0.053-0.743 0.152-1.090l-0.007 0.028c0.010-0.034 0.015-0.074 0.015-0.114 0-0.209-0.149-0.384-0.346-0.423l-0.003-0c-0.026-0.006-0.056-0.009-0.087-0.009-0.053 0-0.103 0.009-0.15 0.026l0.003-0.001c-0.748 0.3-1.393 0.69-1.961 1.169l0.011-0.009c-1.1 0.852-1.802 2.171-1.806 3.654v0.001c-0.397 0.312-0.747 0.678-1.042 1.086-0.483 0.651-0.773 1.47-0.773 2.356 0 0.067 0.002 0.134 0.005 0.2l-0-0.009c-1.007 0.925-1.637 2.249-1.637 3.719 0 0.36 0.038 0.712 0.11 1.051l-0.006-0.033c-0.398 0.243-0.66 0.675-0.66 1.169 0 0.131 0.019 0.258 0.053 0.379l-0.002-0.010c0.167 0.578 0.691 0.994 1.313 0.994 0.004 0 0.008-0 0.013-0h0.027v2.358c0 0 0 0.001 0 0.002 0 0.498 0.404 0.902 0.902 0.902 0.001 0 0.002 0 0.003 0h0.704l1.147 9.908c0.050 0.453 0.431 0.802 0.893 0.802 0.001 0 0.003 0 0.004 0h4.77c0.464-0.001 0.846-0.349 0.901-0.798l0-0.004 1.146-9.908h0.704c0.498-0.001 0.903-0.404 0.905-0.902v-2.359h0.028c0.758-0 1.373-0.615 1.373-1.374 0-0.188-0.038-0.368-0.107-0.531l0.003 0.009c-0.069-0.168-0.171-0.319-0.3-0.446l-0.012 0.004zM5.999 6.678c0.579 2.17 2.816 3.024 4.855 3.787 0.066 0.043 0.147 0.068 0.234 0.068 0.242 0 0.438-0.196 0.438-0.438 0-0.216-0.156-0.395-0.361-0.431l-0.003-0c-2.196-0.831-4.268-1.605-4.424-3.823-0.004-0.067-0.007-0.146-0.007-0.224 0-1.204 0.575-2.274 1.465-2.95l0.009-0.007c0.306-0.254 0.634-0.48 0.982-0.674-0.011 0.125-0.017 0.27-0.017 0.417s0.006 0.292 0.018 0.436l-0.001-0.019c0.1 1.331 0.736 2.497 1.69 3.295l0.008 0.006c0.334 0.285 0.748 0.578 1.206 0.89 1.058 0.758 2.261 1.605 3.025 2.752 0.477 0.681 0.763 1.527 0.763 2.439 0 0.589-0.119 1.15-0.334 1.661l0.011-0.028h-1.778c-3.665 0-7.877-1.011-8.709-3.843-0.078-0.265-0.123-0.57-0.123-0.886 0-0.954 0.413-1.812 1.069-2.405l0.003-0.003-0.019-0.020zM9.298 20.354l1.344 1.339-1.344 1.34-1.344-1.348 1.344-1.331zM12.378 23.871l-1.11 1.107-1.344-1.34 1.344-1.336 1.166 1.16-0.056 0.409zM9.298 26.944l-1.344-1.34 1.344-1.339 1.344 1.339-1.344 1.34zM8.682 23.646l-1.343 1.34-1.118-1.115-0.048-0.401 1.166-1.16 1.344 1.336zM6.72 25.604l-0.27 0.269-0.068-0.61 0.338 0.341zM6.579 26.976l0.76-0.758 1.477 1.485c0.007 0.030 0.016 0.059 0.028 0.088h-2.173l-0.093-0.814zM11.262 26.218l0.76 0.758-0.093 0.802h-2.232l1.565-1.56zM12.146 25.874l-0.27-0.27 0.342-0.341-0.072 0.61zM12.548 22.367l-0.672-0.682 0.854-0.85-0.181 1.533zM11.258 21.075l-1.275-1.267h2.55l-1.274 1.267zM7.335 21.075l-1.276-1.267h2.55l-1.275 1.267zM11.679 29.643h-4.767c-0.015-0.002-0.026-0.013-0.028-0.028v-0l-0.112-0.962h5.052l-0.109 0.962c-0.002 0.016-0.015 0.028-0.032 0.028-0 0-0 0-0 0v0h-0.005zM15.368 15.668h-1.4c-0.012-0.001-0.026-0.002-0.040-0.002-0.242 0-0.438 0.195-0.44 0.437v0c0 0 0 0 0 0.001 0 0.241 0.196 0.437 0.437 0.437 0.015 0 0.030-0.001 0.045-0.002l-0.002 0h0.499v2.359c-0.002 0.016-0.015 0.028-0.032 0.028-0 0-0 0-0 0v0h-10.286c-0 0-0 0-0 0-0.016 0-0.030-0.012-0.032-0.028l-0-0v-2.359h7.968c0.223-0.023 0.395-0.209 0.395-0.436 0-0.113-0.042-0.215-0.112-0.293l0 0c-0.071-0.078-0.17-0.131-0.281-0.141l-0.002-0h-8.849c-0.013 0.001-0.028 0.002-0.043 0.002-0.276 0-0.499-0.223-0.501-0.498v-0c0-0 0-0.001 0-0.002 0-0.274 0.222-0.496 0.496-0.496 0.017 0 0.034 0.001 0.050 0.002l-0.002-0h0.913c0.223-0.022 0.396-0.208 0.397-0.435v-0c-0-0.227-0.174-0.413-0.395-0.434l-0.002-0h-0.804c-0.048-0.24-0.075-0.515-0.075-0.797 0-1.024 0.359-1.964 0.958-2.701l-0.006 0.008c0.282 0.874 1.006 2.070 2.816 3.021 1.701 0.886 3.954 1.339 6.693 1.339h1.609c0.013-0.001 0.028-0.002 0.043-0.002 0.276 0 0.499 0.223 0.501 0.498v0c0 0 0 0.001 0 0.001 0 0.274-0.222 0.497-0.497 0.497-0.017 0-0.033-0.001-0.049-0.002l0.002 0h0.028zM18.866 27.772l-0.325 0.498 0.007 0.004 0.318-0.502zM22.363 27.94l0.595-0.013-0.016-0.688-0.678 0.114 0.1 0.586zM22.404 29.77l0.152 0.576 0.454-0.12-0.010-0.469-0.595 0.013zM17.814 29.858l0.134-0.581h-0.004l-0.13 0.58zM15.549 28.847v0zM14.73 26.987l0.594 0.003v-0.003h-0.594zM15.014 25.686l-0.534-0.263v0.002l0.534 0.262zM16.838 24.129l0.212 0.557 0.002-0.001-0.213-0.556zM22.683 23.978l0.593 0.046 0.040-0.502-0.49-0.121-0.143 0.577zM22.538 25.843l-0.11 0.584 0.652 0.124 0.052-0.662-0.594-0.046zM20.952 25.080c-0.893 0-1.644 0.095-2.192 0.336-0.281 0.123-0.536 0.298-0.722 0.543-0.177 0.232-0.284 0.526-0.284 0.845 0 0.005 0 0.010 0 0.015v-0.001h1.19c0-0.070 0.016-0.109 0.042-0.142 0.031-0.040 0.101-0.105 0.254-0.172 0.32-0.141 0.87-0.236 1.712-0.236v-1.19zM17.754 26.819c0 0.612 0.274 1.117 0.788 1.451l0.649-0.997c-0.176-0.115-0.246-0.246-0.246-0.454h-1.19zM18.548 28.275c0.486 0.307 1.127 0.423 1.846 0.423v-1.19c-0.622 0-0.999-0.105-1.21-0.238l-0.636 1.005zM20.394 28.698c0.706 0 1.395-0.058 2.069-0.171l-0.199-1.174c-0.556 0.098-1.196 0.154-1.849 0.154-0.007 0-0.014 0-0.021-0h0.001v1.19zM21.769 27.954l0.040 1.83 1.19-0.026-0.041-1.83-1.19 0.026zM22.253 29.195c-0.68 0.179-1.43 0.271-2.254 0.271v1.19c0.912 0 1.765-0.102 2.557-0.31l-0.303-1.15zM20 29.466c-0.84 0-1.52-0.066-2.051-0.189l-0.267 1.16c0.647 0.149 1.424 0.218 2.318 0.218v-1.19zM17.945 29.277c-0.568-0.126-0.978-0.262-1.251-0.395l-0.522 1.069c0.393 0.192 0.904 0.352 1.514 0.488l0.259-1.162zM16.694 28.882c-0.29-0.14-0.539-0.303-0.766-0.493l0.006 0.005-0.77 0.907c0.298 0.252 0.634 0.468 1.008 0.65l0.522-1.069zM15.934 28.393c-0.405-0.342-0.612-0.789-0.608-1.402l-1.19-0.006c-0.005 0.936 0.334 1.728 1.030 2.316l0.768-0.909zM15.326 26.987c0-0.4 0.078-0.742 0.224-1.040l-1.070-0.523c-0.218 0.444-0.346 0.967-0.346 1.52 0 0.015 0 0.030 0 0.046l-0-0.002h1.19zM15.549 25.949c0.27-0.55 0.749-0.978 1.502-1.264l-0.422-1.112c-0.982 0.373-1.72 0.984-2.147 1.85l1.068 0.526zM17.053 24.685c0.791-0.304 1.674-0.461 2.656-0.461v-1.19c-1.11 0-2.139 0.177-3.083 0.539l0.427 1.111zM19.709 24.224c1.002 0 1.945 0.112 2.832 0.331l0.286-1.154c-0.917-0.233-1.971-0.367-3.055-0.367-0.022 0-0.044 0-0.066 0h0.003v1.19zM22.090 23.932l-0.145 1.865 1.186 0.093 0.145-1.866-1.186-0.092zM22.65 25.258c-0.507-0.107-1.092-0.171-1.691-0.179l-0.006-0v1.19c0.418 0 0.909 0.050 1.475 0.158l0.222-1.168zM28.454 26.209l-0.003 0.595 0.605 0.003-0.006-0.605-0.595 0.006zM28.198 25.436l-0.405 0.436 0.006 0.005 0.4-0.44zM26.718 25.494l0.412 0.43 0.004-0.005-0.416-0.425zM26.358 26.198l-0.587-0.096-0.114 0.687 0.697 0.004 0.003-0.595zM30.732 29.37l0.36 0.474 0.214-0.162 0.020-0.267-0.594-0.045zM29.448 29.846l-0.128-0.582-0.003 0.001 0.131 0.581zM24.986 29.683l-0.202 0.56 0.005 0.002 0.198-0.562zM23.97 29.143l-0.37 0.466 0.007 0.006 0.362-0.472zM23.29 28.289l-0.534 0.264 0.002 0.002 0.532-0.266zM23.986 24.681v0zM29.425 24.036l0.238-0.546-0.006-0.002-0.232 0.548zM30.79 25.291l-0.534 0.26 0.002 0.003 0.533-0.264zM31.022 26.331l0.594 0.043 0.002-0.022v-0.022h-0.595zM30.953 27.29l-0.003 0.595 0.556 0.002 0.040-0.554-0.593-0.043zM26.241 27.266l0.003-0.595-0.776-0.003 0.198 0.75 0.575-0.152zM26.915 28.098l-0.294 0.518 0.002 0.002 0.29-0.52zM30.529 27.894v-0.594h-0.119l-0.11 0.046 0.229 0.549zM30.842 27.894l0.594 0.045 0.048-0.64h-0.642v0.595zM29.050 26.202c-0.005-0.43-0.104-0.892-0.451-1.207l-0.8 0.882c-0.006-0.006 0.008 0.002 0.024 0.053 0.018 0.054 0.035 0.146 0.037 0.286l1.19-0.013zM28.604 25c-0.312-0.29-0.722-0.386-1.126-0.386v1.19c0.232 0 0.302 0.056 0.316 0.067l0.81-0.872zM27.478 24.614c-0.443 0-0.855 0.139-1.178 0.455l0.833 0.85c0.065-0.064 0.16-0.114 0.344-0.114v-1.19zM26.305 25.065c-0.279 0.269-0.472 0.626-0.534 1.026l-0.001 0.010 1.174 0.193c0.019-0.146 0.087-0.274 0.185-0.37l0-0-0.824-0.858zM26.354 26.793l2.098 0.011 0.006-1.19-2.098-0.012-0.006 1.19zM30.373 28.896c-0.13 0.098-0.449 0.236-1.053 0.369l0.256 1.162c0.628-0.138 1.166-0.318 1.515-0.584l-0.718-0.947zM29.317 29.266c-0.499 0.121-1.072 0.191-1.662 0.194h-0.002v1.19c0.629 0 1.272-0.076 1.926-0.224l-0.262-1.16zM27.653 29.46c-0.561 0-1.022-0.026-1.39-0.076l-0.159 1.179c0.438 0.059 0.956 0.087 1.55 0.087v-1.19zM26.262 29.384c-0.362-0.048-0.72-0.136-1.078-0.262l-0.396 1.122c0.432 0.152 0.871 0.259 1.315 0.318l0.159-1.179zM25.189 29.124c-0.328-0.115-0.611-0.268-0.866-0.459l0.008 0.006-0.724 0.944c0.338 0.26 0.734 0.467 1.176 0.627l0.406-1.118zM24.338 28.676c-0.216-0.175-0.39-0.393-0.512-0.642l-0.005-0.011-1.064 0.532c0.209 0.419 0.488 0.774 0.842 1.054l0.738-0.933zM23.822 28.026c-0.125-0.254-0.2-0.579-0.2-0.998h-1.19c0 0.558 0.1 1.073 0.323 1.525l1.066-0.528zM23.622 27.028c0-0.418 0.076-0.788 0.218-1.117l-1.091-0.474c-0.2 0.458-0.317 0.991-0.317 1.552 0 0.014 0 0.027 0 0.041l-0-0.002h1.19zM23.841 25.911c0.15-0.346 0.334-0.601 0.542-0.786l-0.792-0.889c-0.358 0.318-0.634 0.726-0.841 1.201l1.091 0.474zM24.382 25.125c0.64-0.57 1.615-0.9 3.020-0.9v-1.19c-1.576 0-2.878 0.37-3.812 1.202l0.792 0.888zM27.402 24.225c0.631 0 1.226 0.12 1.79 0.359l0.465-1.096c-0.659-0.287-1.426-0.454-2.232-0.454-0.008 0-0.016 0-0.023 0h0.001v1.19zM29.186 24.582c0.527 0.23 0.867 0.555 1.069 0.97l1.070-0.52c-0.341-0.702-0.91-1.212-1.662-1.541l-0.476 1.091zM30.257 25.554c0.111 0.225 0.17 0.48 0.17 0.776h1.19c0-0.462-0.096-0.9-0.294-1.302l-1.066 0.526zM30.429 26.288l-0.070 0.958 1.187 0.086 0.070-0.958-1.187-0.086zM30.956 26.694l-4.712-0.023-0.006 1.19 4.712 0.023 0.006-1.19zM25.666 27.418c0.139 0.527 0.479 0.927 0.957 1.197l0.585-1.036c-0.235-0.133-0.344-0.287-0.391-0.464l-1.15 0.303zM26.624 28.617c0.483 0.27 1.086 0.378 1.76 0.378v-1.19c-0.565 0-0.941-0.094-1.179-0.227l-0.581 1.039zM28.384 28.994c0.724 0 1.519-0.196 2.374-0.551l-0.458-1.098c-0.765 0.318-1.4 0.46-1.915 0.46v1.19zM30.528 28.489h0.314v-1.19h-0.314v1.19zM30.249 27.85l-0.11 1.476 1.187 0.088 0.11-1.475-1.187-0.089z"></path>
</symbol>
<symbol id="icon-modal-close" viewBox="0 0 32 32">
<path fill="#fcfcfc" style="fill: var(--color5, #fcfcfc)" d="M23.884 6.706l-7.884 7.884-7.884-7.884c-0.177-0.162-0.414-0.262-0.674-0.262-0.551 0-0.998 0.447-0.998 0.998 0 0.26 0.099 0.497 0.262 0.674l-0.001-0.001 7.88 7.884-7.882 7.882c-0.181 0.181-0.293 0.43-0.293 0.706 0 0.551 0.447 0.998 0.998 0.998 0.275 0 0.524-0.111 0.705-0.292v0l7.886-7.882 7.884 7.884c0.177 0.162 0.414 0.262 0.674 0.262 0.551 0 0.998-0.447 0.998-0.998 0-0.26-0.099-0.497-0.262-0.674l0.001 0.001-7.884-7.884 7.884-7.886c0.181-0.181 0.293-0.43 0.293-0.706 0-0.551-0.447-0.998-0.998-0.998-0.275 0-0.524 0.111-0.705 0.292v0 0.002z"></path>
</symbol>
<symbol id="icon-telegram" viewBox="0 0 32 32">
<path fill="#f8d24e" style="fill: var(--color2, #f8d24e)" d="M32 16c0 8.837-7.163 16-16 16s-16-7.163-16-16c0-8.837 7.163-16 16-16s16 7.163 16 16z"></path>
<path fill="#84a178" style="fill: var(--color4, #84a178)" d="M12.868 18.376l-0.318 4.169c0.455 0 0.651-0.183 0.888-0.401l2.131-1.901 4.414 3.018c0.809 0.421 1.38 0.199 1.598-0.696l2.899-12.673c0.257-1.117-0.433-1.554-1.222-1.28l-17.032 6.086c-1.162 0.422-1.144 1.026-0.198 1.301l4.355 1.264 10.115-5.907c0.475-0.295 0.908-0.132 0.552 0.163l-8.182 6.856z"></path>
</symbol>
<symbol id="icon-weight" viewBox="0 0 32 32">
<path fill="#f8d24e" style="fill: var(--color2, #f8d24e)" d="M16 0c8.837 0 16 7.163 16 16s-7.163 16-16 16c-8.837 0-16-7.163-16-16s7.163-16 16-16z"></path>
<path fill="#000" style="fill: var(--color6, #000)" d="M14.688 4.874c-2.861 0.424-5.218 2.013-6.085 4.093-0.276 0.657-0.351 1.061-0.351 1.853 0.005 0.585 0.026 0.802 0.117 1.118 0.186 0.621 0.319 0.936 0.595 1.382l0.256 0.413-0.288 0.352c-2.271 2.826-2.521 6.8-0.627 9.931 0.707 1.175 1.862 2.329 2.989 3.002l0.335 0.196 9.175-0.077 0.218-0.119c0.761-0.429 1.835-1.387 2.436-2.163 0.87-1.13 1.486-2.5 1.737-3.993l0.007-0.053c0.085-0.533 0.085-2.112-0.005-2.614-0.271-1.547-0.851-2.872-1.766-4.047-0.175-0.223-0.314-0.409-0.314-0.424 0-0.010 0.096-0.171 0.207-0.352 0.255-0.406 0.467-0.875 0.612-1.373l0.010-0.040c0.143-0.518 0.143-1.811 0-2.329-0.511-1.837-2.042-3.369-4.207-4.212-0.607-0.238-1.644-0.492-2.314-0.574-0.622-0.072-2.159-0.058-2.739 0.031zM17.926 5.717c2.84 0.554 4.92 2.292 5.303 4.435 0.085 0.481 0.032 1.299-0.111 1.754-0.144 0.445-0.41 0.968-0.723 1.412-0.128 0.182-0.234 0.388-0.234 0.456s0.111 0.243 0.271 0.419c1.329 1.475 2.031 3.322 2.031 5.32-0.005 2.272-0.877 4.264-2.558 5.827-0.287 0.269-0.697 0.605-0.915 0.75l-0.399 0.269-8.792 0.036-0.34-0.218c-1.234-0.801-2.346-2.126-2.963-3.534-0.776-1.78-0.856-3.845-0.223-5.697 0.335-0.963 0.782-1.749 1.462-2.577 0.277-0.332 0.404-0.528 0.404-0.621 0-0.078-0.138-0.332-0.319-0.595-0.638-0.927-0.899-1.956-0.744-2.929 0.16-0.983 0.606-1.791 1.431-2.592 1.074-1.041 2.574-1.73 4.334-1.988 0.728-0.109 2.34-0.067 3.085 0.072z"></path>
<path fill="#000" style="fill: var(--color6, #000)" d="M14.927 6.628c-2.18 0.357-3.888 1.568-4.447 3.157-0.128 0.357-0.148 0.497-0.148 1.009s0.021 0.652 0.148 1.009c0.080 0.228 0.229 0.544 0.33 0.704 0.277 0.445 0.399 0.461 0.947 0.129 0.788-0.485 1.705-0.857 2.683-1.062l0.056-0.010c0.659-0.134 1.925-0.186 2.643-0.103 1.122 0.129 2.34 0.532 3.313 1.107 0.277 0.16 0.559 0.294 0.628 0.294 0.404 0 0.92-1.164 0.92-2.069 0-2.013-1.926-3.736-4.654-4.166-0.58-0.093-1.862-0.093-2.42 0zM17.559 7.456c0.915 0.196 1.756 0.57 2.388 1.061 0.851 0.657 1.308 1.573 1.234 2.458-0.027 0.352-0.16 0.828-0.239 0.88-0.021 0.010-0.319-0.114-0.659-0.279-0.667-0.327-1.443-0.6-2.254-0.779l-0.070-0.013c-0.495-0.103-0.702-0.119-1.809-0.114-1.090 0-1.318 0.016-1.792 0.114-0.819 0.176-1.457 0.394-2.244 0.766-0.793 0.378-0.75 0.383-0.894-0.083-0.186-0.605-0.069-1.407 0.292-2.013 0.192-0.321 0.718-0.854 1.101-1.117 0.73-0.502 1.368-0.73 2.739-0.979 0.282-0.051 1.846 0.021 2.208 0.099zM16.693 14.131c-0.149 0.187-0.149 0.363 0.005 0.513 0.101 0.099 0.202 0.124 0.57 0.15 0.745 0.054 1.428 0.274 2.027 0.623l-0.022-0.012c0.436 0.259 1.101 0.885 1.399 1.335 0.442 0.646 0.744 1.573 0.744 2.257 0 0.238 0.022 0.31 0.133 0.413 0.17 0.171 0.394 0.171 0.559 0 0.117-0.119 0.122-0.15 0.090-0.657-0.149-2.505-2.292-4.595-4.856-4.736l-0.532-0.031-0.116 0.145z"></path>
</symbol>
</defs>
<symbol id="arrow-right-icon" viewBox="0 0 22 32">
<path d="M3.104 0.726c-0.434 0.434-0.702 1.034-0.702 1.696s0.268 1.262 0.702 1.696l11.878 11.882-11.878 11.878c-0.399 0.427-0.644 1.003-0.644 1.636 0 1.325 1.075 2.4 2.4 2.4 0.633 0 1.209-0.245 1.638-0.645l-0.001 0.001 13.578-13.574c0.434-0.434 0.702-1.034 0.702-1.696s-0.268-1.262-0.702-1.696l-13.578-13.578c-0.434-0.434-1.034-0.702-1.696-0.702s-1.262 0.268-1.696 0.702l0-0z"></path>
</symbol>
<symbol id="icon-coursor" viewBox="0 0 25 32">
<path stroke-linejoin="miter" stroke-linecap="butt" stroke-miterlimit="4" stroke-width="2.6667" d="M8.063 2.683l14.579 13.607c2.495 2.328 1.116 6.511-2.275 6.899l-5.491 0.627c-1.438 0.169-2.71 0.772-3.709 1.673l0.006-0.005-3.164 2.848c-2.573 2.317-6.676 0.491-6.676-2.973v-19.749c0-3.499 4.173-5.312 6.729-2.925z"></path>
</symbol>
<symbol id="icon-solo-ice-cream" viewBox="0 0 32 32">
<path fill="#f8d24e" style="fill: var(--color1, #f8d24e)" d="M16 0c8.837 0 16 7.163 16 16s-7.163 16-16 16c-8.837 0-16-7.163-16-16s7.163-16 16-16z"></path>
<path fill="#000" style="fill: var(--color2, #000)" d="M16.078 4.557c0.058 0.155 0.173 0.902 0.173 1.133 0 0.002 0 0.005 0 0.008 0 0.589-0.229 1.124-0.603 1.522l0.001-0.001c-0.323 0.347-0.646 0.54-1.422 0.853-0.863 0.352-1.22 0.564-1.624 0.964-0.41 0.41-0.651 0.858-0.737 1.384-0.097 0.573 0 0.979 0.294 1.21l0.149 0.115-0.236 0.15c-0.477 0.314-1.344 1.051-1.494 1.277-0.289 0.434-0.26 0.838 0.067 1.003l0.154 0.077-0.173 0.164c-0.26 0.246-0.314 0.415-0.275 0.858 0.024 0.294 0.015 0.454-0.052 0.694-0.082 0.314-0.082 0.318 0.024 0.54 0.106 0.217 0.405 0.492 0.675 0.607 0.13 0.058 0.134 0.077 0.164 0.52 0.014 0.256 0.038 1.070 0.058 1.812 0.015 0.742 0.049 1.422 0.077 1.504 0.024 0.086 0.116 0.202 0.198 0.26 0.279 0.193 0.472 0.401 0.597 0.641 0.14 0.275 0.294 0.95 0.762 3.283l0.328 1.638 0.202 0.193c0.385 0.381 1.123 0.554 2.338 0.554 1.219 0 1.947-0.169 2.333-0.55l0.207-0.197 0.298-1.519c0.66-3.321 0.718-3.504 1.234-3.914 0.159-0.131 0.314-0.289 0.342-0.362 0.034-0.082 0.068-0.714 0.092-1.668 0.019-0.848 0.049-1.687 0.068-1.866l0.029-0.323 0.314-0.237c0.395-0.303 0.549-0.578 0.549-1.002-0.004-0.501-0.333-1.051-0.93-1.542l-0.285-0.231 0.14-0.198c0.583-0.804 0.217-1.918-0.868-2.66l-0.328-0.227 0.12-0.125c0.535-0.573 0.622-2.285 0.173-3.475-0.269-0.708-0.887-1.48-1.644-2.049-0.37-0.28-1.393-0.897-1.484-0.897-0.019 0-0.019 0.034-0.004 0.077zM17.466 6.24c0.256 0.251 0.564 0.593 0.685 0.766 0.718 1.003 0.901 2.261 0.467 3.187-0.173 0.376-0.694 0.934-1.176 1.267-0.737 0.511-2.396 1.37-3.552 1.841-1.86 0.757-2.941 0.902-3.066 0.405-0.049-0.188 0.092-0.337 0.685-0.733 0.534-0.366 2.935-2.15 2.979-2.222 0.014-0.019-0.232 0.092-0.54 0.246-1.046 0.531-1.542 0.429-1.518-0.308 0.014-0.535 0.4-1.142 0.934-1.489 0.136-0.086 0.555-0.28 0.941-0.434 1.267-0.511 1.653-0.771 2.082-1.412 0.256-0.381 0.535-1.085 0.554-1.384 0.005-0.106 0.024-0.188 0.038-0.188s0.232 0.207 0.486 0.458zM18.781 11.716c0.352 0.197 0.718 0.535 0.877 0.8 0.28 0.477 0.136 0.954-0.467 1.562-0.655 0.666-1.773 1.302-3.003 1.706-1.133 0.371-2.217 0.545-3.77 0.598l-0.964 0.034 0.627 0.038c0.81 0.053 2.376 0.005 2.983-0.092 1.615-0.256 2.989-0.767 3.972-1.47 0.222-0.159 0.453-0.289 0.516-0.289 0.159 0 0.853 0.666 0.993 0.945 0.077 0.159 0.097 0.275 0.082 0.429-0.072 0.641-0.853 0.984-2.737 1.21-2.304 0.275-5.316 0.005-6.604-0.588-0.608-0.28-0.708-0.439-0.554-0.863 0.048-0.135 0.058-0.294 0.038-0.521-0.024-0.299-0.019-0.337 0.086-0.448 0.241-0.26 0.646-0.41 2.131-0.786 0.52-0.134 1.229-0.347 1.566-0.472 0.819-0.299 2.357-1.075 3.070-1.552 0.67-0.444 0.767-0.463 1.157-0.241zM12.38 17.615c1.012 0.294 1.909 0.381 3.577 0.347 1.253-0.024 2.024-0.101 3.137-0.299 0.227-0.038 0.424-0.072 0.449-0.072 0.053 0 0.038 1.851-0.019 2.338-0.063 0.516-0.203 0.916-0.352 1.012-0.154 0.101-0.925 0.207-1.957 0.265-2.116 0.115-4.29 0-4.964-0.27-0.366-0.149-0.405-0.342-0.41-2.131 0-1.19 0.010-1.354 0.072-1.33 0.038 0.014 0.25 0.077 0.467 0.14zM13.523 21.713c0.348 0.044 0.723 0.086 0.838 0.101l0.208 0.024-0.184 0.202c-0.236 0.255-0.598 0.766-0.728 1.027-0.149 0.299-0.198 0.318-0.419 0.198l-0.188-0.106-0.106-0.655c-0.056-0.364-0.103-0.621-0.156-0.876l0.020 0.119c-0.044-0.125-0.087-0.125 0.713-0.033zM18.661 21.66c0 0.010-0.024 0.134-0.049 0.275-0.029 0.144-0.149 0.93-0.269 1.749-0.246 1.711-0.41 2.516-0.559 2.786-0.207 0.362-0.704 0.573-1.508 0.641-0.314 0.024-1.258-0.038-1.311-0.087-0.038-0.043 0.79-1.070 0.921-1.137 0.12-0.068 0.154-0.058 0.563 0.154 0.477 0.252 0.719 0.29 0.719 0.131s-0.125-0.314-0.434-0.525c-0.284-0.203-0.385-0.319-0.385-0.454 0-0.038 0.14-0.255 0.308-0.482s0.414-0.588 0.54-0.805l0.237-0.39 0.216 0.029c0.438 0.063 0.554 0.058 0.54-0.038-0.010-0.049-0.092-0.188-0.184-0.304-0.092-0.12-0.164-0.241-0.164-0.265 0-0.092 0.448-0.935 0.593-1.114 0.125-0.154 0.227-0.232 0.227-0.164zM15.649 22.045c0.241 0.159 1.147 0.945 1.204 1.041 0.024 0.044-0.906 1.499-1.089 1.706-0.019 0.024-0.12-0.024-0.221-0.101-0.225-0.169-0.498-0.359-0.777-0.541l-0.061-0.037-0.651-0.429 0.39-0.66c0.694-1.162 0.68-1.142 0.829-1.142 0.077 0 0.246 0.072 0.376 0.164zM17.475 22.218c-0.169 0.207-0.308 0.338-0.366 0.338-0.125 0-0.328-0.111-0.67-0.362l-0.285-0.207 0.57-0.034c0.251-0.009 0.479-0.025 0.706-0.047l-0.046 0.004c0.386-0.062 0.386-0.058 0.092 0.309zM13.831 24.537c0.444 0.173 1.196 0.583 1.412 0.767 0.154 0.125 0.154 0.134 0.092 0.289-0.102 0.203-0.201 0.371-0.31 0.533l0.011-0.017c-0.092 0.138-0.199 0.313-0.3 0.491l-0.023 0.044c-0.154 0.299-0.202 0.323-0.52 0.237-0.342-0.102-0.525-0.275-0.621-0.589-0.131-0.438-0.338-1.677-0.314-1.87 0.010-0.072 0.212-0.029 0.573 0.116z"></path>
</symbol>
</defs>
</svg>
